<?xml version="1.0" standalone="no"?>
<!DOCTYPE svg PUBLIC "-//W3C//DTD SVG 20010904//EN"
 "http://www.w3.org/TR/2001/REC-SVG-20010904/DTD/svg10.dtd">
<svg version="1.0" xmlns="http://www.w3.org/2000/svg"
 width="512.000000pt" height="512.000000pt" viewBox="0 0 512.000000 512.000000"
 preserveAspectRatio="xMidYMid meet">

<g transform="translate(0.000000,512.000000) scale(0.100000,-0.100000)"
fill="#000000" stroke="none">
<path d="M2492 5109 c-45 -13 -108 -80 -121 -126 -6 -21 -11 -92 -11 -158 l0
-121 -72 -12 c-162 -28 -354 -109 -521 -219 -93 -61 -299 -267 -360 -360 -109
-165 -176 -322 -219 -511 -21 -94 -22 -123 -27 -837 -7 -855 4 -776 -117 -856
-224 -149 -328 -404 -264 -653 29 -113 73 -190 160 -276 86 -87 163 -131 276
-160 75 -19 115 -20 1344 -20 1229 0 1269 1 1344 20 113 29 190 73 276 160 87
86 131 163 160 276 64 249 -40 504 -264 653 -121 80 -110 1 -117 856 -5 714
-6 743 -27 837 -65 288 -180 496 -387 703 -171 171 -325 269 -539 340 -56 19
-133 40 -173 47 l-71 12 -4 140 c-3 128 -5 145 -27 179 -47 76 -151 113 -239
86z m303 -818 c333 -83 605 -333 714 -658 48 -144 51 -190 51 -922 0 -761 1
-766 65 -895 47 -95 103 -156 204 -224 102 -69 126 -107 126 -197 0 -73 -27
-123 -88 -163 l-41 -27 -1265 0 -1266 0 -38 24 c-21 13 -50 42 -65 64 -22 34
-27 52 -27 106 0 90 23 123 131 197 118 79 187 168 236 304 l23 65 6 755 c5
729 6 758 27 835 91 343 335 606 662 715 164 54 380 62 545 21z"/>
<path d="M2092 389 c-47 -14 -109 -80 -123 -131 -23 -89 12 -182 88 -229 l38
-24 465 0 465 0 38 24 c21 13 50 42 65 64 23 34 27 52 27 107 0 55 -4 73 -27
107 -15 22 -44 51 -65 64 l-38 24 -450 2 c-267 1 -463 -2 -483 -8z"/>
</g>
</svg>
